<svg xmlns="http://www.w3.org/2000/svg" viewBox="0 0 80.4 83.16"><defs><style>.cls-1{fill:#fff;}</style></defs><g id="Layer_2" data-name="Layer 2"><g id="Layer_1-2" data-name="Layer 1"><path class="cls-1" d="M72.52,21.2a.79.79,0,0,1,.57.23.81.81,0,0,1,0,1.14.79.79,0,0,1-.56.23.75.75,0,0,1-.26,0l-.38-.13-.12-.37a.78.78,0,0,1,.19-.82.76.76,0,0,1,.56-.24m-43.77,59,.36.17a.82.82,0,0,1,.44.72.8.8,0,1,1-1.15-.72l.35-.17M72.52,20a2,2,0,0,0-1.94,2.71L55.69,37.54H36.26L27.84,46V79.27a2.05,2.05,0,1,0,1.82,0V46.71L37,39.36H56.45L71.87,23.94a2.06,2.06,0,0,0,.65.11,2.05,2.05,0,1,0,0-4.1Z"/><path class="cls-1" d="M52,5.94a.8.8,0,0,1,.35,1.52L52,7.64l-.36-.18A.8.8,0,0,1,52,5.94M23.11,67.45l.35.18a.78.78,0,0,1,.45.71.8.8,0,1,1-1.6,0,.79.79,0,0,1,.44-.71l.36-.18M52,4.69a2.05,2.05,0,0,0-.91,3.89V24.77l-5.82,5.61H33.19l-11,11V66.5a2.05,2.05,0,1,0,1.82,0V42.12l9.92-9.92H46l6.91-6.66v-17A2.05,2.05,0,0,0,52,4.69Z"/><path class="cls-1" d="M2.05,25.8a.8.8,0,0,1,.76,1.06l-.13.37-.37.13a.78.78,0,0,1-.26,0A.8.8,0,0,1,1.48,26a.84.84,0,0,1,.57-.24m15.26,52,.35.18a.8.8,0,1,1-.7,0l.35-.18M2.05,24.55a2.05,2.05,0,1,0,0,4.1,2.16,2.16,0,0,0,.66-.1l7.1,7.1V47.92l6.59,6.6V76.85a2.05,2.05,0,1,0,1.82,0V53.76l-6.59-6.59V34.89L4,27.26a2,2,0,0,0-1.94-2.71Z"/><path class="cls-1" d="M64.62,11.48a.76.76,0,0,1,.57.24.8.8,0,0,1,0,1.13.79.79,0,0,1-.56.23.75.75,0,0,1-.26,0L64,12.91l-.12-.37a.78.78,0,0,1,.19-.82.76.76,0,0,1,.56-.24M53.2,31.09a.78.78,0,0,1,.26,0l.37.13.13.37a.8.8,0,0,1-.76,1.06.76.76,0,0,1-.56-.24.8.8,0,0,1-.24-.56.76.76,0,0,1,.24-.57.79.79,0,0,1,.56-.23M64.62,10.23a2,2,0,0,0-1.94,2.71L59,16.59v8.19l-5.17,5.16a2.16,2.16,0,0,0-.66-.1,2,2,0,0,0-1.45.59,2.06,2.06,0,0,0,1.45,3.51,2,2,0,0,0,1.94-2.71l5.71-5.7V17.34L64,14.22a2.08,2.08,0,0,0,.66.11,2,2,0,0,0,1.44-.6,2.05,2.05,0,0,0-1.45-3.5Z"/><path class="cls-1" d="M78.35,28.45A.8.8,0,0,1,78.7,30l-.35.17L78,30a.8.8,0,0,1,.35-1.52M71.61,43.36a.75.75,0,0,1,.26,0l.38.12.12.38A.79.79,0,0,1,71.62,45a.79.79,0,0,1-.57-.23.81.81,0,0,1,.56-1.37M78.35,27.2a2.05,2.05,0,0,0-.91,3.89v6l-5.17,5.17a2.08,2.08,0,0,0-.66-.11,2,2,0,0,0-1.44.6,2.05,2.05,0,1,0,3.39.8l5.7-5.7V31.09a2.05,2.05,0,0,0-.91-3.89Z"/><path class="cls-1" d="M12.88,10a.8.8,0,0,1,.8.8.78.78,0,0,1-.45.71l-.35.18-.36-.18A.8.8,0,0,1,12.88,10M17,44.72l.35.17a.8.8,0,1,1-1.15.72.8.8,0,0,1,.44-.72l.36-.17M12.88,8.79A2,2,0,0,0,12,12.67v8.77l4.09,4.09V43.77a2.05,2.05,0,1,0,1.82,0v-19l-4.09-4.09v-8a2,2,0,0,0-.91-3.88Z"/><path class="cls-1" d="M4.69,16.17a.8.8,0,0,1,.36,1.52l-.36.18-.35-.18a.8.8,0,0,1,.35-1.52M9.38,25a.79.79,0,0,1,.57.23.8.8,0,0,1-.57,1.37.83.83,0,0,1-.57-.23.84.84,0,0,1-.19-.83l.13-.37L9.12,25a.78.78,0,0,1,.26,0m-4.69-10a2.05,2.05,0,0,0-.91,3.89v2.63l3.66,3.65A2.05,2.05,0,1,0,9.38,23.7a1.81,1.81,0,0,0-.65.11L5.6,20.69V18.81a2,2,0,0,0-.91-3.89Z"/><path class="cls-1" d="M21.06,5.94a.8.8,0,0,1,.35,1.52l-.35.18-.35-.18a.8.8,0,0,1,.35-1.52M41.52,22.31a.8.8,0,1,1-.72,1.15l-.18-.35.18-.36a.8.8,0,0,1,.72-.44M21.06,4.69a2.05,2.05,0,0,0-.91,3.89v4.67L30.91,24h8.77a2.05,2.05,0,1,0,0-1.82h-8L22,12.5V8.58a2.05,2.05,0,0,0-.91-3.89Z"/><path class="cls-1" d="M36,1.25a.79.79,0,0,1,.56.23.8.8,0,0,1,.24.57.81.81,0,0,1-.23.57.79.79,0,0,1-.57.23.78.78,0,0,1-.26,0l-.37-.13-.13-.37a.82.82,0,0,1,.19-.83A.79.79,0,0,1,36,1.25m7.58,12.87a.8.8,0,1,1,0,1.6.82.82,0,0,1-.72-.44l-.17-.36.17-.35a.81.81,0,0,1,.72-.45M36,0A2,2,0,0,0,34,2.71L28,8.78l7,7.05h6.71a2.05,2.05,0,1,0,0-1.82h-6L30.53,8.78,35.32,4A2.17,2.17,0,0,0,36,4.1,2.05,2.05,0,1,0,36,0Z"/><path class="cls-1" d="M46.21,1.25a.79.79,0,0,1,.56.23.8.8,0,0,1,0,1.14.82.82,0,0,1-.82.19l-.37-.13-.13-.37a.8.8,0,0,1,.19-.82.76.76,0,0,1,.57-.24M40.92,6.54a.75.75,0,0,1,.26,0l.38.12.12.38a.78.78,0,0,1-.19.82.8.8,0,0,1-1.36-.57.79.79,0,0,1,.79-.79M46.21,0a2,2,0,0,0-1.94,2.71L41.58,5.39a2.12,2.12,0,0,0-.66-.11,2.06,2.06,0,0,0,0,4.11,2.06,2.06,0,0,0,1.94-2.71L45.55,4a2.17,2.17,0,0,0,.66.11,2.05,2.05,0,1,0,0-4.1Z"/><path class="cls-1" d="M22.51,21.71a.79.79,0,0,1,.57.23.82.82,0,0,1,.19.83l-.13.37-.37.13a.78.78,0,0,1-.26,0,.79.79,0,0,1-.57-.23.81.81,0,0,1,0-1.14.83.83,0,0,1,.57-.23m0,9.38a.78.78,0,0,1,.26,0l.37.13.13.37a.8.8,0,0,1-.76,1.06.76.76,0,0,1-.56-.24.8.8,0,0,1,.56-1.36m0-10.63a2.05,2.05,0,1,0,0,4.1,1.91,1.91,0,0,0,.66-.11l1.07,1.08v3.34l-1.07,1.07a2.16,2.16,0,0,0-.66-.1,2,2,0,0,0-1.45.59,2.06,2.06,0,0,0,1.45,3.51,2,2,0,0,0,1.94-2.71l1.61-1.61V24.78l-1.61-1.61a2,2,0,0,0-1.94-2.71Z"/><path class="cls-1" d="M70.76,34a.79.79,0,0,1,.57.23.8.8,0,0,1,0,1.13.76.76,0,0,1-.57.24,1.27,1.27,0,0,1-.26,0l-.37-.13L70,35.05a.84.84,0,0,1,.19-.83.83.83,0,0,1,.57-.23M41.53,44.81a.78.78,0,0,1,.71.45l.18.35-.18.36a.8.8,0,1,1-.71-1.16M70.76,32.74a2,2,0,0,0-1.94,2.7l-9.26,9.27H43.36a2,2,0,1,0,0,1.81h17l9.8-9.79a2.06,2.06,0,0,0,.65.11,2.05,2.05,0,1,0,0-4.1Z"/><path class="cls-1" d="M2.05,36a.8.8,0,0,1,.76,1.06l-.13.37-.37.13a.78.78,0,0,1-.26,0,.79.79,0,0,1-.57-.23.8.8,0,0,1,0-1.13A.84.84,0,0,1,2.05,36m2.64,8.69.36.17a.8.8,0,1,1-1.16.72.8.8,0,0,1,.45-.72l.35-.17M2.05,34.78A2.06,2.06,0,0,0,.6,38.29a2,2,0,0,0,1.45.59,2.16,2.16,0,0,0,.66-.1l1.07,1.07v3.92a2.05,2.05,0,1,0,1.82,0V39.1L4,37.49a2,2,0,0,0-1.94-2.71Z"/></g></g></svg>