<svg xmlns="http://www.w3.org/2000/svg" xmlns:xlink="http://www.w3.org/1999/xlink" viewBox="0 0 108.2 108.2"><defs><style>.cls-1,.cls-3{fill:none;}.cls-2{clip-path:url(#clip-path);}.cls-3{stroke:#7f9ebe;stroke-width:2px;}.cls-4{fill:#7f9ebe;}</style><clipPath id="clip-path"><rect class="cls-1" width="108.2" height="108.2"/></clipPath></defs><g id="Layer_2" data-name="Layer 2"><g id="Layer_1-2" data-name="Layer 1"><g class="cls-2"><circle class="cls-3" cx="54.1" cy="54.1" r="53.1"/><path class="cls-4" d="M42.55,50.44l5.92-6c-.11-.17-.21-.33-.33-.49l-6.06,6.11Z"/><path class="cls-4" d="M41.54,49.7l6.21-6.26c-.12-.15-.25-.29-.38-.44l-6.3,6.35Z"/><path class="cls-4" d="M40.6,47.14,46,41.73l-.48-.33L40.6,46.33v.81Z"/><path class="cls-4" d="M40.6,45.39l4.31-4.34c-.17-.1-.35-.19-.53-.28L40.6,44.58Z"/><path class="cls-4" d="M40.6,43.64l3.13-3.15q-.3-.12-.6-.21L40.6,42.83Z"/><path class="cls-4" d="M40.6,41.89l1.8-1.81L41.72,40,40.6,41.08Z"/><path class="cls-4" d="M40.6,48.89l6.31-6.36-.42-.39L40.6,48.08Z"/><path class="cls-4" d="M40.88,39.86H40.6v.29Z"/><path class="cls-4" d="M43.55,51.18l5.52-5.56c-.09-.19-.17-.38-.27-.56l-5.72,5.77Z"/><path class="cls-4" d="M45.56,52.66l4.26-4.3c0-.24-.07-.47-.11-.71l-4.62,4.66Z"/><path class="cls-4" d="M44.55,51.92l5-5c-.06-.21-.13-.42-.2-.62l-5.25,5.29Z"/><path class="cls-4" d="M47.56,54.14l2-2c.09-.34.17-.69.23-1L47.1,53.79Z"/><path class="cls-4" d="M46.56,53.4l3.32-3.35c0-.17,0-.34,0-.51s0-.21,0-.31l-3.79,3.82Z"/><path class="cls-4" d="M48.39,54.74A10.81,10.81,0,0,0,49,53.63l-.9.9Z"/><path class="cls-4" d="M28.45,35.58a2,2,0,0,0-1.95,2v38.2a2,2,0,0,0,1.95,2h51.3a2,2,0,0,0,2-2V37.54a2,2,0,0,0-2-2ZM79.75,79H28.45a3.27,3.27,0,0,1-3.25-3.27V37.54a3.27,3.27,0,0,1,3.25-3.27h51.3A3.27,3.27,0,0,1,83,37.54v38.2A3.27,3.27,0,0,1,79.75,79"/></g><rect class="cls-4" x="58.29" y="47.16" width="2.49" height="8.22"/><rect class="cls-4" x="62.16" y="47.84" width="2.49" height="7.54"/><rect class="cls-4" x="66.02" y="49.21" width="2.49" height="6.17"/><rect class="cls-4" x="69.89" y="45.79" width="2.49" height="9.6"/><rect class="cls-4" x="73.76" y="45.79" width="2.49" height="9.6"/><polygon class="cls-4" points="76.12 61.02 63.04 67.5 58.27 64.59 49.69 68.53 35.77 69.77 30.29 73.7 41.33 73.7 52.83 73.7 64.58 73.7 68.57 73.7 76.08 73.7 76.12 61.02"/><g class="cls-2"><path class="cls-4" d="M40.25,59.22a9.71,9.71,0,0,1-.36-19.4v9.6h0l8,5.93h0a9.59,9.59,0,0,1-7.69,3.87"/></g></g></g></svg>