<svg xmlns="http://www.w3.org/2000/svg" xmlns:xlink="http://www.w3.org/1999/xlink" viewBox="0 0 108.2 108.2"><defs><style>.cls-1,.cls-4{fill:none;}.cls-2{clip-path:url(#clip-path);}.cls-3{fill:#7f9ebe;}.cls-4{stroke:#7f9ebe;stroke-width:2px;}</style><clipPath id="clip-path"><rect class="cls-1" width="108.2" height="108.2"/></clipPath></defs><g id="Layer_2" data-name="Layer 2"><g id="Layer_1-2" data-name="Layer 1"><g class="cls-2"><path class="cls-3" d="M54.1,55.2a.74.74,0,1,1-.74.73.74.74,0,0,1,.74-.73m0,2.93a2.2,2.2,0,1,0-2.23-2.2,2.21,2.21,0,0,0,2.23,2.2"/><path class="cls-3" d="M56.33,70.6v1.47h3v1.47a2.9,2.9,0,0,0,.4,1.46H48.51a2.9,2.9,0,0,0,.4-1.46V72.07h5.93V70.6H50.39V59.52a5.22,5.22,0,0,0,7.42,0V70.6ZM54.1,52.27a3.67,3.67,0,1,1-3.71,3.66,3.69,3.69,0,0,1,3.71-3.66m7.37-8.81h.05v-.05l5.2-5.13a.43.43,0,0,0,0,0,5.17,5.17,0,0,0,5.2,5.13h0L59.29,56v-.06A5.17,5.17,0,0,0,54.1,50.8H54ZM47.42,42V37.6H45.94v5.86H43V33.2h3v2.93h1.48V34.66H68.27L60.85,42ZM36.29,43.46H32.58V42h3.71a3.67,3.67,0,1,0,0-7.34H32.58V33.2h3.71a5.13,5.13,0,1,1,0,10.26m39.33-5.13a3.71,3.71,0,1,1-3.71-3.67,3.7,3.7,0,0,1,3.71,3.67m0,3.6h0a5.11,5.11,0,0,0,1.49-3.6,5.17,5.17,0,0,0-5.19-5.13H47.42V31.73H41.49v2.46a6.71,6.71,0,0,0-5.2-2.46H31.1v4.4h5.19a2.2,2.2,0,1,1,0,4.4H31.1v4.4h5.19a6.71,6.71,0,0,0,5.2-2.46v2.46h5.93V43.46H59.37L50.43,52.3h0a5.1,5.1,0,0,0-1.52,3.63V70.6H47.42v2.94A1.47,1.47,0,0,1,45.94,75v1.47H62.26V75a1.47,1.47,0,0,1-1.48-1.46V70.6H59.29V58.06Z"/><path class="cls-3" d="M71.91,37.6a.73.73,0,1,1,0,1.46.73.73,0,1,1,0-1.46m0,2.93a2.2,2.2,0,1,0-2.23-2.2,2.22,2.22,0,0,0,2.23,2.2"/></g><polygon class="cls-3" points="59.51 51.75 67.67 43.68 68.72 44.72 60.56 52.78 59.51 51.75"/><rect class="cls-3" x="48.91" y="36.13" width="14.1" height="1.47"/><rect class="cls-3" x="54.84" y="62.53" width="1.48" height="6.6"/><g class="cls-2"><circle class="cls-4" cx="54.1" cy="54.1" r="53.1"/></g></g></g></svg>