<svg xmlns="http://www.w3.org/2000/svg" viewBox="0 0 6276.68 4125.28"><defs><style>.cls-1,.cls-11,.cls-12,.cls-13,.cls-2,.cls-25,.cls-27,.cls-7{fill:none;}.cls-1,.cls-7{stroke:#8dc63f;}.cls-1,.cls-11,.cls-12,.cls-13,.cls-2,.cls-25,.cls-31,.cls-7{stroke-miterlimit:10;}.cls-1{stroke-width:2px;}.cls-2{stroke:#0cbab1;}.cls-16,.cls-17,.cls-18,.cls-19,.cls-20,.cls-21,.cls-22,.cls-23,.cls-24,.cls-29,.cls-3,.cls-8{fill:#0cbab1;}.cls-3{opacity:0.21;}.cls-4,.cls-5,.cls-6{fill:#00a79d;}.cls-4{opacity:0.25;}.cls-25,.cls-6{opacity:0.43;}.cls-7{stroke-width:2.19px;}.cls-9{fill:#0f8e81;}.cls-10,.cls-14,.cls-15,.cls-26,.cls-30,.cls-31{fill:#fff;}.cls-11,.cls-12,.cls-13{stroke:#fff;}.cls-11{stroke-width:3.79px;}.cls-12,.cls-13,.cls-25{stroke-width:3px;}.cls-13{stroke-dasharray:11.95 11.95;}.cls-14,.cls-15{font-size:123.55px;}.cls-14{font-family:AcuminPro-Semibold, Acumin Pro;font-weight:600;}.cls-15{font-family:AllRoundGothic-Demi, All Round Gothic;font-weight:300;}.cls-16{opacity:0.9;}.cls-17{opacity:0.8;}.cls-18{opacity:0.7;}.cls-19{opacity:0.6;}.cls-20{opacity:0.5;}.cls-21{opacity:0.4;}.cls-22{opacity:0.3;}.cls-23{opacity:0.2;}.cls-24{opacity:0.28;}.cls-25{stroke:#00a79d;}.cls-26{opacity:0.63;}.cls-28{fill:#8dc63f;}.cls-29{opacity:0.74;}.cls-30{font-size:79px;}.cls-30,.cls-31{font-family:Helvetica-Bold, Helvetica;font-weight:700;}.cls-31{font-size:70px;stroke:#231f20;}</style></defs><g id="Layer_2" data-name="Layer 2"><g id="Layer_1-2" data-name="Layer 1"><line class="cls-1" x1="2124.57" y1="2833.02" x2="3233.84" y2="2192.3"/><polygon class="cls-2" points="4491.55 1650.7 4169.89 1464.99 4491.55 1279.28 4813.21 1465 4491.55 1650.7"/><polygon class="cls-2" points="3947.02 802.7 3625.36 616.98 3947.01 431.27 4268.68 616.99 3947.02 802.7"/><polygon class="cls-2" points="2963.63 1366.3 2641.97 1180.59 2963.63 994.88 3285.29 1180.6 2963.63 1366.3"/><polygon class="cls-2" points="4974.67 2529.89 4653.01 2344.18 4974.67 2158.47 5296.33 2344.18 4974.67 2529.89"/><polygon class="cls-2" points="5954.02 1964.78 5632.35 1779.07 5954.01 1593.36 6275.68 1779.07 5954.02 1964.78"/><polygon class="cls-3" points="2964.14 1365.75 2642.48 1180.04 2964.14 994.33 3285.8 1180.04 2964.14 1365.75"/><polygon class="cls-3" points="3947.65 802.38 3625.99 616.66 3947.64 430.95 4269.31 616.67 3947.65 802.38"/><polygon class="cls-3" points="4492.38 1651.24 4170.72 1465.53 4492.38 1279.82 4814.04 1465.53 4492.38 1651.24"/><polygon class="cls-3" points="5953.25 1964.88 5631.59 1779.17 5953.25 1593.46 6274.91 1779.17 5953.25 1964.88"/><polygon class="cls-3" points="4973.87 2529.51 4652.21 2343.8 4973.87 2158.09 5295.53 2343.8 4973.87 2529.51"/><ellipse class="cls-1" cx="3420.61" cy="1627.98" rx="244.56" ry="147.61"/><ellipse class="cls-1" cx="3420.61" cy="1990.79" rx="244.56" ry="147.76"/><ellipse class="cls-4" cx="3420.61" cy="2099.58" rx="244.56" ry="147.76"/><circle class="cls-5" cx="3421.1" cy="2043.46" r="73.05"/><ellipse class="cls-6" cx="3418.89" cy="2101.2" rx="155.06" ry="93.68"/><ellipse class="cls-7" cx="3417.44" cy="1863.15" rx="332.41" ry="188.65"/><circle class="cls-5" cx="3329.84" cy="1480.21" r="34.35"/><circle class="cls-5" cx="3268.69" cy="1866.7" r="44.46"/><circle class="cls-5" cx="3474.29" cy="1375.98" r="20.26"/><circle class="cls-5" cx="3781.51" cy="1643.05" r="17.3"/><circle class="cls-5" cx="3634.98" cy="1551.46" r="23.3"/><circle class="cls-5" cx="3694.05" cy="1754.92" r="23.3"/><circle class="cls-5" cx="3114.73" cy="1673.97" r="20.26"/><circle class="cls-5" cx="3411.46" cy="1243.33" r="14.33"/><circle class="cls-5" cx="3185.22" cy="2029.09" r="14.33"/><polygon class="cls-8" points="3948.8 483.78 3736.39 361.15 3948.8 238.51 4161.21 361.15 3948.8 483.78"/><polygon class="cls-9" points="3948.92 728.99 3736.51 606.35 3736.51 361.07 3948.92 483.71 3948.92 728.99"/><polygon class="cls-5" points="4161.18 606.45 3948.76 729.09 3948.76 483.81 4161.18 361.18 4161.18 606.45"/><polygon class="cls-8" points="4489.9 1326.91 4277.48 1204.28 4489.9 1081.64 4702.31 1204.28 4489.9 1326.91"/><polygon class="cls-9" points="4490.02 1572.12 4277.61 1449.48 4277.61 1204.21 4490.02 1326.84 4490.02 1572.12"/><polygon class="cls-5" points="4702.27 1449.58 4489.86 1572.22 4489.86 1326.94 4702.27 1204.31 4702.27 1449.58"/><polygon class="cls-8" points="5954.07 1643.71 5741.66 1521.07 5954.07 1398.43 6166.48 1521.07 5954.07 1643.71"/><polygon class="cls-9" points="5954.19 1888.91 5741.78 1766.27 5741.78 1521 5954.19 1643.64 5954.19 1888.91"/><polygon class="cls-5" points="6166.45 1766.37 5954.03 1889.01 5954.03 1643.74 6166.45 1521.1 6166.45 1766.37"/><polygon class="cls-8" points="4971.77 2206.11 4759.36 2083.48 4971.77 1960.84 5184.18 2083.48 4971.77 2206.11"/><polygon class="cls-9" points="4971.89 2451.32 4759.48 2328.68 4759.48 2083.41 4971.89 2206.04 4971.89 2451.32"/><polygon class="cls-5" points="5184.15 2328.78 4971.73 2451.42 4971.73 2206.14 5184.15 2083.51 5184.15 2328.78"/><polygon class="cls-8" points="2966.5 1046.19 2754.09 923.55 2966.5 800.92 3178.91 923.55 2966.5 1046.19"/><polygon class="cls-9" points="2966.62 1291.39 2754.21 1168.76 2754.21 923.48 2966.62 1046.12 2966.62 1291.39"/><polygon class="cls-5" points="3178.88 1168.86 2966.46 1291.49 2966.46 1046.22 3178.88 923.58 3178.88 1168.86"/><path class="cls-10" d="M5926.74,1187.62a13.57,13.57,0,1,0,13.58,13.57A13.61,13.61,0,0,0,5926.74,1187.62Zm0,4.52a9.05,9.05,0,1,1-9,9A9,9,0,0,1,5926.74,1192.14Zm58.82,24.89a22,22,0,0,0-15.84,6.6v-2.08a2.35,2.35,0,0,0-2.26-2.26h-18.1a2.35,2.35,0,0,0-2.26,2.26v61.07a2.36,2.36,0,0,0,2.26,2.27h19.23a2.35,2.35,0,0,0,2.26-2.27v-33.93a13.12,13.12,0,0,1,2.23-7.42,5.71,5.71,0,0,1,4.56-2.76h2.26a5.71,5.71,0,0,1,4.56,2.76,13.12,13.12,0,0,1,2.23,7.42v33.93a2.35,2.35,0,0,0,2.26,2.27h19.23a2.36,2.36,0,0,0,2.26-2.27V1243c0-7.54-1.42-14.09-5.44-18.8S5994.49,1217,5985.56,1217Zm-68.08,2.26a2.34,2.34,0,0,0-2,2.26v61.07a2.36,2.36,0,0,0,2.27,2.27h19.22a2.35,2.35,0,0,0,2.26-2.27v-61.07a2.35,2.35,0,0,0-2.26-2.26Zm68.08,2.26c8.11,0,12.95,2.09,16,5.62s4.38,8.91,4.38,15.87v37.32h-14.7v-31.67a17.3,17.3,0,0,0-3.07-10,10.31,10.31,0,0,0-8.24-4.67h-2.26a10.31,10.31,0,0,0-8.24,4.67,17.3,17.3,0,0,0-3.07,10v13.58H5965a2.26,2.26,0,1,0,.21,4.52h1.13v4.52H5965a2.27,2.27,0,1,0,.21,4.53h1.13v4.52h-14.7v-56.55h13.57v5.66a2.26,2.26,0,0,0,4,1.41C5973,1226.15,5977.07,1221.55,5985.56,1221.55Zm-65.6,2.26h14.7v38.46h-1.34a2.26,2.26,0,1,0,.21,4.52h1.13v4.52h-1.34a2.27,2.27,0,1,0,.21,4.53h1.13v4.52H5920Z"/><circle class="cls-11" cx="5959.37" cy="1239.07" r="83.89"/><line class="cls-12" x1="5958.7" y1="1332.07" x2="5958.7" y2="1338.07"/><line class="cls-13" x1="5958.7" y1="1350.02" x2="5958.7" y2="1511.33"/><line class="cls-12" x1="5958.7" y1="1517.3" x2="5958.7" y2="1523.3"/><circle class="cls-11" cx="4974.5" cy="1804.5" r="83.89"/><line class="cls-12" x1="4973.83" y1="1897.5" x2="4973.83" y2="1903.5"/><line class="cls-13" x1="4973.83" y1="1915.44" x2="4973.83" y2="2076.76"/><line class="cls-12" x1="4973.83" y1="2082.73" x2="4973.83" y2="2088.73"/><text class="cls-14" transform="translate(4955.62 1852.81)">f</text><circle class="cls-11" cx="2966.23" cy="639.89" r="83.89"/><line class="cls-12" x1="2965.56" y1="732.89" x2="2965.56" y2="738.89"/><line class="cls-13" x1="2965.56" y1="750.83" x2="2965.56" y2="912.15"/><line class="cls-12" x1="2965.56" y1="918.12" x2="2965.56" y2="924.12"/><text class="cls-15" transform="translate(2921.23 677.76)">G</text><circle class="cls-11" cx="3956.05" cy="85.79" r="83.89"/><line class="cls-12" x1="3955.38" y1="178.79" x2="3955.38" y2="184.79"/><line class="cls-13" x1="3955.38" y1="196.74" x2="3955.38" y2="358.05"/><line class="cls-12" x1="3955.38" y1="364.03" x2="3955.38" y2="370.03"/><path class="cls-10" d="M3996.12,57.53h0m-20-9.2a20.5,20.5,0,0,0-20.47,19.89,43.36,43.36,0,0,1-26.83-15.42,3.89,3.89,0,0,0-3-1.43l-.47,0a3.87,3.87,0,0,0-3.05,2.21c-8.27,17.61-4.29,30.49.51,38.19a38.57,38.57,0,0,0,12.93,12.63,29.49,29.49,0,0,1-11.59,2.35,4,4,0,0,0-4,4c0,3.84,6,6.55,8,7.44a42.55,42.55,0,0,0,17.48,3.57c19.2,0,31.23-9.07,37.94-16.69a52.71,52.71,0,0,0,13.12-34.37c0-.53,0-1.07,0-1.61.29-.89.53-1.65.75-2.34,1-3,1.41-4.41,2.44-8a3.9,3.9,0,0,0-3.69-5.13h-1.29l-2.63,0c-.78,0-1.14,0-2,0h-.31a20.61,20.61,0,0,0-13.73-5.28Z"/><line class="cls-1" x1="4649.43" y1="1559.61" x2="5488.78" y2="2047.54"/><line class="cls-1" x1="5184.42" y1="2222.95" x2="5792.46" y2="1871.9"/><line class="cls-1" x1="855.14" y1="3621.12" x2="1798.29" y2="3076.43"/><line class="cls-1" x1="3577.36" y1="1988.92" x2="4328.26" y2="1556.54"/><line class="cls-1" x1="3479.5" y1="883.69" x2="4277.93" y2="1347.82"/><line class="cls-1" x1="459.57" y1="3390.51" x2="1257.99" y2="3854.65"/><line class="cls-1" x1="724.36" y1="3236.23" x2="1522.78" y2="3700.36"/><line class="cls-1" x1="987.33" y1="3076.71" x2="1785.75" y2="3540.84"/><line class="cls-1" x1="3174.76" y1="1059.66" x2="3782.79" y2="708.61"/><polygon class="cls-16" points="4490.83 624.09 4278.41 501.45 4490.83 378.82 4703.24 501.45 4490.83 624.09"/><polygon class="cls-17" points="4490.83 702.6 4278.41 579.97 4490.83 457.33 4703.24 579.97 4490.83 702.6"/><polygon class="cls-18" points="4490.83 775.06 4278.41 652.42 4490.83 529.79 4703.24 652.42 4490.83 775.06"/><polygon class="cls-19" points="4490.83 844.78 4278.41 722.15 4490.83 599.51 4703.24 722.15 4490.83 844.78"/><polygon class="cls-20" points="4490.83 914.62 4278.41 791.98 4490.83 669.34 4703.24 791.98 4490.83 914.62"/><polygon class="cls-21" points="4490.83 985.22 4278.41 862.58 4490.83 739.94 4703.24 862.58 4490.83 985.22"/><polygon class="cls-22" points="4490.83 1057.05 4278.41 934.41 4490.83 811.78 4703.24 934.42 4490.83 1057.05"/><polygon class="cls-23" points="4490.83 1127.65 4278.41 1005.01 4490.83 882.38 4703.24 1005.01 4490.83 1127.65"/><polygon class="cls-1" points="4492.73 1262.31 4280.31 1139.67 4492.73 1017.03 4705.14 1139.67 4492.73 1262.31"/><polygon class="cls-24" points="4277.96 1071.42 4277.96 503.83 4490.37 378.82 4702.78 503.83 4702.78 1071.43 4490.37 1196.44 4277.96 1071.42"/><path class="cls-6" d="M2697.07,2854l-539.94-311.74c-4.38-2.53-8-9.37-8-15.21V2071.24c0-5.84,3.58-8.55,8-6L2697.07,2377c4.38,2.53,8,9.38,8,15.22V2848C2705,2853.83,2701.45,2856.53,2697.07,2854Z"/><path class="cls-6" d="M2117.32,3242.93,1577.39,2931.2c-4.38-2.53-8-9.38-8-15.22V2460.17c0-5.84,3.59-8.55,8-6l539.93,311.73c4.38,2.53,8,9.37,8,15.21v455.82C2125.29,3242.75,2121.7,3245.46,2117.32,3242.93Z"/><path class="cls-25" d="M2799,2785,2259,2473.24c-4.38-2.53-8-9.38-8-15.22V2002.21c0-5.84,3.58-8.55,8-6L2799,2307.92c4.38,2.53,8,9.38,8,15.22V2779C2806.94,2784.79,2803.36,2787.5,2799,2785Z"/><path class="cls-25" d="M2894.31,2719.23l-539.94-311.74c-4.38-2.53-8-9.37-8-15.21V1936.46c0-5.84,3.58-8.55,8-6l539.94,311.73c4.38,2.53,8,9.38,8,15.22v455.82C2902.27,2719,2898.69,2721.75,2894.31,2719.23Z"/><path class="cls-25" d="M2177.4,3205.08l-539.93-311.74c-4.38-2.52-8-9.37-8-15.21V2422.31c0-5.84,3.59-8.55,8-6L2177.4,2728c4.38,2.52,8,9.37,8,15.21v455.82C2185.37,3204.9,2181.78,3207.61,2177.4,3205.08Z"/><path class="cls-25" d="M2157.14,3219.19,1617.2,2907.46c-4.38-2.53-8-9.38-8-15.22V2436.42c0-5.83,3.58-8.54,8-6l539.94,311.74c4.38,2.53,8,9.37,8,15.21v455.82C2165.1,3219,2161.52,3221.72,2157.14,3219.19Z"/><path class="cls-25" d="M2136.74,3227.93,1596.81,2916.2c-4.38-2.53-8-9.38-8-15.22V2445.16c0-5.84,3.59-8.54,8-6l539.93,311.74c4.38,2.53,8,9.37,8,15.21v455.82C2144.71,3227.75,2141.12,3230.46,2136.74,3227.93Z"/><path class="cls-26" d="M2584.55,2910.26l-539.93-311.73c-4.38-2.53-8-9.37-8-15.21V2127.5c0-5.84,3.59-8.55,8-6l539.93,311.73c4.38,2.53,8,9.38,8,15.22v455.81C2592.52,2910.08,2588.93,2912.79,2584.55,2910.26Z"/><path class="cls-26" d="M2101,3252.58,1561,2940.84c-4.38-2.53-8-9.37-8-15.21V2469.81c0-5.84,3.58-8.55,8-6L2101,2775.52c4.38,2.53,8,9.38,8,15.22v455.82C2108.91,3252.4,2105.33,3255.11,2101,3252.58Z"/><path class="cls-5" d="M1828.67,2804.73l-291.24-168.15c-5.14-3-9.34-11-9.34-17.84v-11.29c0-6.85,4.2-10,9.34-7.06l291.24,168.15c5.13,3,9.34,11,9.34,17.84v11.29C1838,2804.52,1833.8,2807.69,1828.67,2804.73Z"/><path class="cls-5" d="M1777.38,2845.59,1534,2705.06c-4.29-2.48-7.41-9.88-6.92-16.45l.8-10.82c.49-6.57,4.4-9.91,8.69-7.44L1780,2810.89c4.29,2.48,7.4,9.88,6.92,16.45l-.81,10.82C1785.59,2844.73,1781.68,2848.07,1777.38,2845.59Z"/><path class="cls-5" d="M1777.38,2914.21,1534,2773.68c-4.29-2.48-7.41-9.88-6.92-16.45l.8-10.82c.49-6.57,4.4-9.91,8.69-7.44L1780,2879.51c4.29,2.48,7.4,9.88,6.92,16.45l-.81,10.82C1785.59,2913.35,1781.68,2916.69,1777.38,2914.21Z"/><path class="cls-27" d="M1930.2,2891.57l-7.59-12.53c-7.81,5.81-12.55,16.57-12.55,31.36,0,15.17,5,31.88,13.17,47l7-3.47,4.51,9.52-6.08,3c8.78,13.4,20,24.9,32.28,32,28.08,16.21,50.85,3.07,50.85-29.36s-22.77-71.86-50.85-88.07c-12.6-7.27-24.11-8.62-33-5l6.79,11.23Z"/><path class="cls-28" d="M1910.06,2910.4c0-14.79,4.74-25.55,12.55-31.36l-16.73-27.65c-11.62,8.34-18.68,24.08-18.68,45.81,0,22.12,7.31,46.49,19.3,68.54l16.73-8.31C1915,2942.28,1910.06,2925.57,1910.06,2910.4Z"/><path class="cls-5" d="M1961.43,2854.85c-19.2-11.24-36.73-13-49.94-6.86l16.7,27.84c8.94-3.52,20.49-2,33.08,5.32,28.08,16.45,50.68,56,50.48,88.28s-23.12,45.18-51.21,28.73c-12.25-7.17-23.46-18.74-32.19-32.19l-16.94,8.16c13,21,30.11,39.28,49,50.33,40.71,23.84,73.94,5.19,74.23-41.64S2002.14,2878.69,1961.43,2854.85Z"/><polygon class="cls-27" points="1865.67 2774.14 2056.14 2884.11 2056.14 3104.03 1865.67 2994.07 1865.67 2774.14"/><path class="cls-29" d="M885.07,3125.47,537.66,2924.89c-5.71-3.3-5-9.11,1.61-12.92l180.64-104.3c6.6-3.81,16.68-4.23,22.4-.93l347.4,200.58c5.72,3.3,5,9.12-1.61,12.93L907.46,3124.54C900.86,3128.35,890.79,3128.77,885.07,3125.47Z"/><path class="cls-29" d="M621.54,3285.15l-347.4-200.58c-5.72-3.3-5-9.12,1.6-12.93l180.64-104.29c6.6-3.81,16.68-4.23,22.4-.93L826.18,3167c5.72,3.3,5,9.11-1.6,12.92l-180.65,104.3C637.33,3288,627.26,3288.45,621.54,3285.15Z"/><path class="cls-29" d="M351.26,3442.29,3.86,3241.72c-5.72-3.3-5-9.12,1.6-12.93l180.64-104.3c6.6-3.81,16.68-4.22,22.4-.92l347.4,200.57c5.72,3.3,5,9.12-1.6,12.93L373.66,3441.36C367.06,3445.17,357,3445.59,351.26,3442.29Z"/><path class="cls-29" d="M2039.32,3806.23l-347.41-200.57c-5.71-3.3-5-9.12,1.61-12.93l180.64-104.29c6.6-3.81,16.68-4.23,22.4-.93L2244,3688.08c5.72,3.3,5,9.12-1.61,12.93L2061.71,3805.3C2055.11,3809.11,2045,3809.53,2039.32,3806.23Z"/><path class="cls-29" d="M1775.79,3965.91l-347.4-200.58c-5.72-3.3-5-9.11,1.6-12.93l180.64-104.29c6.6-3.81,16.68-4.23,22.4-.93l347.4,200.58c5.72,3.3,5,9.12-1.6,12.93L1798.18,3965C1791.58,3968.79,1781.51,3969.21,1775.79,3965.91Z"/><path class="cls-29" d="M1505.51,4123.05l-347.4-200.57c-5.72-3.3-5-9.12,1.6-12.93l180.64-104.29c6.6-3.81,16.68-4.23,22.4-.93l347.4,200.58c5.72,3.3,5,9.11-1.6,12.92l-180.65,104.3C1521.3,4125.94,1511.23,4126.35,1505.51,4123.05Z"/><text class="cls-30" transform="matrix(0.87, 0.5, -0.87, 0.5, 1823.67, 3592.73)">LEADS</text><text class="cls-30" transform="matrix(0.87, 0.5, -0.87, 0.5, 404.89, 3070.54)">LEADS</text><text class="cls-30" transform="matrix(0.87, 0.5, -0.87, 0.5, 138.87, 3224.9)">LEADS</text><text class="cls-30" transform="matrix(0.87, 0.5, -0.87, 0.5, 1562.24, 3758.64)">DONOR</text><text class="cls-30" transform="matrix(0.87, 0.5, -0.87, 0.5, 656.94, 2898.88)">DONOR</text><text class="cls-30" transform="matrix(0.87, 0.5, -0.87, 0.5, 1296.08, 3916.28)">DONOR</text><text class="cls-31" transform="translate(4321.26 1389.68) scale(1.02 1)">SCRAPER</text><text class="cls-31" transform="translate(3256.62 1693.31) scale(1.02 1)">MACHINE-<tspan x="-7.79" y="84">LEARNING</tspan></text></g></g></svg>