<svg xmlns="http://www.w3.org/2000/svg" xmlns:xlink="http://www.w3.org/1999/xlink" viewBox="0 0 108.2 108.2"><defs><style>.cls-1,.cls-3{fill:none;}.cls-2{clip-path:url(#clip-path);}.cls-3{stroke:#7f9ebe;stroke-width:2px;}.cls-4{fill:#7f9ebe;}</style><clipPath id="clip-path"><rect class="cls-1" width="108.2" height="108.2"/></clipPath></defs><g id="Layer_2" data-name="Layer 2"><g id="Layer_1-2" data-name="Layer 1"><g class="cls-2"><circle class="cls-3" cx="54.1" cy="54.1" r="53.1"/><path class="cls-4" d="M55.43,68.82a2.43,2.43,0,0,1,2.5,2.35v.07a2.43,2.43,0,1,1-2.5-2.42m6.64-8.14-2.66,3.89A1.5,1.5,0,0,0,59.25,66l.29.75a1.53,1.53,0,0,1-.35,1.64l-.5.5a4,4,0,0,0-5.57-.82,4,4,0,0,0-.82,5.54,4,4,0,0,0,5.57.82,4,4,0,0,0,1.38-1.87l4.69-5.79h0a41.85,41.85,0,0,1-1.87-6.08"/><path class="cls-4" d="M71.67,71.91a2.42,2.42,0,0,1,2.5,2.34v.07a2.43,2.43,0,1,1-2.5-2.41m-5.52-13.6a1.17,1.17,0,0,1,1.2,1.13v0a1.17,1.17,0,0,1-2.33,0h0a1.16,1.16,0,0,1,1.13-1.16M64.44,39.52a40.09,40.09,0,0,0,.22,24.68l3.1,10A4,4,0,1,0,69.64,71l-.28-.64a1.54,1.54,0,0,1,.29-1.66l.54-.58a1.55,1.55,0,0,0,.38-1.39Z"/></g><polygon class="cls-4" points="55.93 59.94 52.19 61.65 52.84 63.05 51.43 63.69 50.78 62.29 49.38 62.94 50.67 65.74 49.26 66.38 47.97 63.58 46.56 64.22 47.21 65.62 45.8 66.26 45.15 64.86 43.75 65.51 45.04 68.31 43.63 68.95 42.34 66.15 40.93 66.79 41.58 68.19 40.17 68.83 39.52 67.43 38.12 68.08 39.41 70.88 38 71.52 36.71 68.72 35.3 69.36 35.95 70.76 34.54 71.41 33.89 70 32.48 70.65 34.42 74.85 56.16 64.93 55.93 59.94"/><polygon class="cls-4" points="43.19 55.44 39.18 58.93 47.78 61.97 53.84 59.2 51.95 58.53 51.43 59.99 49.97 59.48 50.49 58.02 49.03 57.51 47.99 60.41 46.53 59.9 47.57 56.99 46.11 56.47 45.59 57.93 44.13 57.41 44.65 55.96 43.19 55.44"/><polygon class="cls-4" points="55.14 36.85 57.27 35 59.01 39.62 37.51 58.34 36.49 53.08 37.66 52.07 38.68 53.23 39.84 52.21 38.83 51.05 39.99 50.04 42.03 52.36 43.2 51.34 41.16 49.02 42.32 48.01 43.34 49.17 44.51 48.15 43.49 46.99 44.65 45.98 46.69 48.3 47.86 47.28 45.82 44.96 46.98 43.95 48.01 45.11 49.17 44.09 48.15 42.94 49.32 41.92 51.36 44.24 52.52 43.23 50.48 40.91 51.65 39.89 52.67 41.05 53.83 40.04 52.81 38.88 53.98 37.86 56.02 40.18 57.18 39.17 55.14 36.85"/><polygon class="cls-4" points="49.6 39.62 54.91 35 47.97 35 47.97 36.54 46.42 36.54 46.42 35 44.88 35 44.88 38.08 43.33 38.08 43.33 35 41.78 35 41.78 36.54 40.23 36.54 40.23 35 38.68 35 38.68 38.08 37.13 38.08 37.13 35 35.58 35 35.58 36.54 34.03 36.54 34.03 35 32.48 35 32.48 39.62 49.6 39.62"/><g class="cls-2"><path class="cls-4" d="M70.21,58.07a40.2,40.2,0,0,0,5-16.51l-6.53,9.53Z"/></g></g></g></svg>